<?xml version="1.0" encoding="utf-8"?>
<!-- Generator: Adobe Illustrator 18.1.0, SVG Export Plug-In . SVG Version: 6.00 Build 0)  -->
<!DOCTYPE svg PUBLIC "-//W3C//DTD SVG 1.1//EN" "http://www.w3.org/Graphics/SVG/1.1/DTD/svg11.dtd">
<svg version="1.1" id="Laag_1" xmlns="http://www.w3.org/2000/svg" xmlns:xlink="http://www.w3.org/1999/xlink" x="0px" y="0px"
	 viewBox="0 0 139.3 37.8" width="175" height="48" enable-background="new 0 0 139.3 37.8" xml:space="preserve">
<g opacity="0.25">
	<rect x="7.8" y="8.2" fill="#FFFFFF" width="123.8" height="24.5"/>
	<rect x="9.3" y="29" transform="matrix(0.7071 0.7071 -0.7071 0.7071 26.888 0.4327)" fill="#FFFFFF" width="7.3" height="7.3"/>
	
		<rect x="19.6" y="29" transform="matrix(0.7071 0.7071 -0.7071 0.7071 29.9088 -6.8602)" fill="#FFFFFF" width="7.3" height="7.3"/>
	
		<rect x="29.9" y="29" transform="matrix(0.7071 0.7071 -0.7071 0.7071 32.9296 -14.1531)" fill="#FFFFFF" width="7.3" height="7.3"/>
	
		<rect x="40.2" y="29" transform="matrix(0.7071 0.7071 -0.7071 0.7071 35.9504 -21.446)" fill="#FFFFFF" width="7.3" height="7.3"/>
	
		<rect x="50.5" y="29" transform="matrix(0.7071 0.7071 -0.7071 0.7071 38.9712 -28.7389)" fill="#FFFFFF" width="7.3" height="7.3"/>
	
		<rect x="60.8" y="29" transform="matrix(0.7071 0.7071 -0.7071 0.7071 41.992 -36.0317)" fill="#FFFFFF" width="7.3" height="7.3"/>
	
		<rect x="71.2" y="29" transform="matrix(0.7071 0.7071 -0.7071 0.7071 45.0128 -43.3246)" fill="#FFFFFF" width="7.3" height="7.3"/>
	
		<rect x="81.5" y="29" transform="matrix(0.7071 0.7071 -0.7071 0.7071 48.0336 -50.6175)" fill="#FFFFFF" width="7.3" height="7.3"/>
	
		<rect x="91.8" y="29" transform="matrix(0.7071 0.7071 -0.7071 0.7071 51.0545 -57.9104)" fill="#FFFFFF" width="7.3" height="7.3"/>
	
		<rect x="102.1" y="29" transform="matrix(0.7071 0.7071 -0.7071 0.7071 54.0753 -65.2033)" fill="#FFFFFF" width="7.3" height="7.3"/>
	
		<rect x="112.4" y="29" transform="matrix(0.7071 0.7071 -0.7071 0.7071 57.0961 -72.4962)" fill="#FFFFFF" width="7.3" height="7.3"/>
	
		<rect x="122.7" y="29" transform="matrix(0.7071 0.7071 -0.7071 0.7071 60.1169 -79.789)" fill="#FFFFFF" width="7.3" height="7.3"/>
</g>
<path opacity="0.25" fill="#FFFFFF" d="M3,35L3,35c-1.7,0-3-1.4-3-3V3c0-1.7,1.4-3,3-3h0c1.7,0,3,1.4,3,3V32C6,33.6,4.7,35,3,35z"/>
<path opacity="0.25" fill="#FFFFFF" d="M136.3,35L136.3,35c-1.7,0-3-1.4-3-3V3c0-1.7,1.4-3,3-3h0c1.7,0,3,1.4,3,3V32
	C139.3,33.6,137.9,35,136.3,35z"/>
</svg>
