<?xml version="1.0" encoding="utf-8"?>
<!-- Generator: Adobe Illustrator 18.1.0, SVG Export Plug-In . SVG Version: 6.00 Build 0)  -->
<!DOCTYPE svg PUBLIC "-//W3C//DTD SVG 1.1//EN" "http://www.w3.org/Graphics/SVG/1.1/DTD/svg11.dtd">
<svg version="1.1" id="Laag_1" xmlns="http://www.w3.org/2000/svg" xmlns:xlink="http://www.w3.org/1999/xlink" x="0px" y="0px"
	 viewBox="0 0 99.6 48.6" width="152" height="75" enable-background="new 0 0 99.6 48.6" xml:space="preserve">
<g opacity="0.25">
	<polygon fill="#FFFFFF" points="81.8,45.8 17.8,45.8 7.8,10.8 91.8,10.8 	"/>
	<path fill="#FFFFFF" d="M82,48.6H17.6c-1.4,0-2.6-1.2-2.6-2.6v0c0-1.4,1.2-2.6,2.6-2.6H82c1.4,0,2.6,1.2,2.6,2.6v0
		C84.6,47.5,83.4,48.6,82,48.6z"/>
	<path fill="#FFFFFF" d="M91.2,13.4H8.4c-1.4,0-2.6-1.2-2.6-2.6v0c0-1.4,1.2-2.6,2.6-2.6h82.8c1.4,0,2.6,1.2,2.6,2.6v0
		C93.8,12.2,92.6,13.4,91.2,13.4z"/>
	<g>
		<path fill="#FFFFFF" d="M11.2,11L11,11.2c-0.6,0.6-1.6,0.6-2.2,0L0.5,2.9c-0.6-0.6-0.6-1.6,0-2.2l0.2-0.2c0.6-0.6,1.6-0.6,2.2,0
			l8.3,8.3C11.8,9.4,11.8,10.4,11.2,11z"/>
		<path fill="#FFFFFF" d="M99,0.5l0.2,0.2c0.6,0.6,0.6,1.6,0,2.2l-8.3,8.3c-0.6,0.6-1.6,0.6-2.2,0L88.4,11c-0.6-0.6-0.6-1.6,0-2.2
			l8.3-8.3C97.4-0.2,98.4-0.2,99,0.5z"/>
	</g>
</g>
</svg>
