<?xml version="1.0" encoding="utf-8"?>
<!-- Generator: Adobe Illustrator 18.1.0, SVG Export Plug-In . SVG Version: 6.00 Build 0)  -->
<!DOCTYPE svg PUBLIC "-//W3C//DTD SVG 1.1//EN" "http://www.w3.org/Graphics/SVG/1.1/DTD/svg11.dtd">
<svg version="1.1" id="Layer_1" xmlns="http://www.w3.org/2000/svg" xmlns:xlink="http://www.w3.org/1999/xlink" x="0px" y="0px"
	 viewBox="-76 77 26 27" width="26" height="27" enable-background="new -76 77 26 27" xml:space="preserve">
<path fill="#CE0538" d="M-51,104h-24c-0.6,0-1-0.5-1-1V78c0-0.6,0.4-1,1-1h24c0.5,0,1,0.4,1,1v25C-50,103.5-50.5,104-51,104z"/>
<path fill="#FFFFFF" d="M-56.1,84.9h-13.7c-0.6,0-1-0.5-1-1v-0.8c0-0.6,0.4-1,1-1h13.7c0.5,0,1,0.4,1,1v0.8
	C-55.1,84.5-55.6,84.9-56.1,84.9z"/>
<path fill="#FFFFFF" d="M-56.1,91.9h-13.7c-0.6,0-1-0.4-1-1v-0.8c0-0.6,0.4-1,1-1h13.7c0.5,0,1,0.4,1,1v0.8
	C-55.1,91.5-55.6,91.9-56.1,91.9z"/>
<path fill="#FFFFFF" d="M-56.1,98.9h-13.7c-0.6,0-1-0.4-1-1v-0.8c0-0.5,0.4-1,1-1h13.7c0.5,0,1,0.5,1,1v0.8
	C-55.1,98.4-55.6,98.9-56.1,98.9z"/>
</svg>
