<?xml version="1.0" encoding="utf-8"?>
<!-- Generator: Adobe Illustrator 18.1.0, SVG Export Plug-In . SVG Version: 6.00 Build 0)  -->
<!DOCTYPE svg PUBLIC "-//W3C//DTD SVG 1.1//EN" "http://www.w3.org/Graphics/SVG/1.1/DTD/svg11.dtd">
<svg version="1.1" id="Layer_1" xmlns="http://www.w3.org/2000/svg" xmlns:xlink="http://www.w3.org/1999/xlink" x="0px" y="0px"
	 viewBox="393.7 0 149.5 179.7" enable-background="new 393.7 0 149.5 179.7" xml:space="preserve">
<g>
	<path fill="#FFFFFF" d="M405.7,21.9c0,0,3.7-13.3,15.4-12.8c0,0,6-0.5,11.2,5c5.2,5.5,5.5,11.2,5.7,11.7
		c0.3,0.5,24.8,22.4,24.8,22.4v25.3l-21.7-18.8c0,0-2.6-2.3-5.7-3.7c-2.6-1-3.7-1.3-6.3-0.5c-2.6,1-2.6,1.3-5.7,1.6
		c-4.4,0.3-6.8-0.5-9.1-1.8c-6.3-3.7-6.5-7.3-6.5-7.3l12.5-2.9l4.7-10.7l-7.3-9.1L405.7,21.9z"/>
	<path fill="#FFFFFF" d="M468.6,77.2l1-73.3l8.9-3.9l1.6,20.6L478,23l2.3,3.1l-2.9,3.1l2.6,3.7l-2.3,3.4l2.9,3.7l-2.9,3.7l3.1,3.9
		l-2.9,3.7l3.4,3.4l-2.9,3.7l3.1,3.7l-2.6,3.7l2.6,4.2l-2.3,3.9l2.9,3.1l-2.3,3.4l2.6,3.1l-1.8,3.1l1.8,1.8l0.5,5l6.5-7.6
		c0,0,1.8-27.1,2.3-32.1c0.5-6,1.6-9.9,2.9-13.6c1.6-4.4,1-2.6,2.6-6c1.3-2.9,4.4-6.8,4.4-6.8l1,12.8c0,0,0.5,10.4,0.5,11.5
		c0,0.8,0,18,0,18l26.3-30l0.3,0.3c0,0,0.5,3.1-0.8,8.6c-3.4,14.3-10.2,21.7-12.5,24.8s-11.2,14.1-11.2,14.1s-1,13.3-1.6,19.3
		c-0.5,6-0.5,18.5-0.5,18.5l0.3,5.5h-6v-17.2c0,0,0.3-5-0.3-7.3c-0.5-2.3-0.8-3.1-2.3-5.2c-1.8-2.6-2.6-3.1-2.6-3.1s-3.1,1.3-5,2.6
		c-2.1,1.3-4.2,3.1-4.2,3.1s0.8,11,1,12.8c0,2.1,0.8,14.1,0.8,14.1h-26.1l8.9-13.8L468.6,77.2z"/>
	<path fill="#FFFFFF" d="M407.5,62.3c0,0,10.7-2.9,21.1,1c10.7,4.2,34.2,21.1,34.2,21.1V108c0,0-34.4-21.1-43.3-28.7
		C408.1,69.7,407.5,62.3,407.5,62.3"/>
	<path fill="#FFFFFF" d="M393.7,141.4h9.4v9.1l0,0c0.8-2.1,3.7-3.1,5.7-3.1c3.9,0,6.5,2.6,6.5,8.3v23.5H406V156c0-1-0.3-2.3-1.6-2.3
		s-1.3,1.3-1.3,2.3v23.2h-9.4V141.4z"/>
	<path fill="#FFFFFF" d="M418,157.6c0-8.1,6-10.2,11.2-10.2c4.4,0,10.4,2.6,10.4,10.2v6.5h-12.3v8.1c0,1.3,0.3,2.1,1.3,2.1
		c1.3,0,1.6-1,1.6-2.1v-5.5h9.1v2.9c0,8.1-5.5,10.2-10.4,10.2c-5.2,0-11.2-2.3-11.2-10.2v-12H418z M427.4,158.9h3.1V155
		c0-1-0.3-2.1-1.6-2.1c-1,0-1.3,0.8-1.3,2.1v3.9H427.4z"/>
	<path fill="#FFFFFF" d="M440.7,148.2h2.1v-4.7h9.7v4.7h2.6v5h-2.6v19.6c0,0.8,0.3,1.3,1,1.3h1.3v5h-5.2c-6.3,0-7-2.6-7-7.3v-18.5
		h-1.8V148.2z"/>
	<path fill="#FFFFFF" d="M469.1,148.2h9.4v2.3l0,0c0.5-1,1.3-1.8,2.3-2.3s2.3-0.8,3.4-0.8c2.9,0,4.7,2.1,5.5,3.7
		c1.6-1.8,3.7-3.7,6.3-3.7c3.9,0,6.5,2.6,6.5,8.3v23.5h-9.4V156c0-1-0.3-2.3-1.6-2.3s-1.3,1.3-1.3,2.3v23.2h-9.1V156
		c0-1-0.3-2.3-1.3-2.3c-1.3,0-1.3,1.3-1.3,2.3v23.2h-9.4C469.1,179.2,469.1,148.2,469.1,148.2z"/>
	<path fill="#FFFFFF" d="M505.1,157.6c0-8.1,6-10.2,11.2-10.2c5.2,0,11.2,2.3,11.2,10.2v12c0,8.1-6,10.2-11.2,10.2
		c-5.2,0-11.2-2.3-11.2-10.2V157.6z M514.5,171.4c0,1,0.5,2.1,1.6,2.1c1,0,1.6-1,1.6-2.1V155c0-1-0.5-2.1-1.6-2.1
		c-1,0-1.6,1-1.6,2.1V171.4z"/>
	<path fill="#FFFFFF" d="M528.8,148.2h2.1v-4.7h9.7v4.7h2.6v5h-2.6v19.6c0,0.8,0.3,1.3,1,1.3h1.3v5h-5.2c-6.3,0-7-2.6-7-7.3v-18.5
		h-2.1v-5H528.8z"/>
</g>
</svg>
