<?xml version="1.0" encoding="utf-8"?>
<!-- Generator: Adobe Illustrator 18.1.0, SVG Export Plug-In . SVG Version: 6.00 Build 0)  -->
<!DOCTYPE svg PUBLIC "-//W3C//DTD SVG 1.1//EN" "http://www.w3.org/Graphics/SVG/1.1/DTD/svg11.dtd">
<svg version="1.1" id="Layer_1" xmlns="http://www.w3.org/2000/svg" xmlns:xlink="http://www.w3.org/1999/xlink" x="0px" y="0px"
	 viewBox="0 0 78.7 16.3" enable-background="new 0 0 78.7 16.3" xml:space="preserve">
<path fill="#CE0538" d="M63.5,2.7c0,0,0.5-1.6,1.9-1.6c0,0,0.7-0.1,1.4,0.6c0.7,0.7,0.7,1.4,0.7,1.4c0,0.1,3,2.8,3,2.8v3.1l-2.7-2.3
	c0,0-0.3-0.3-0.7-0.5c-0.3-0.1-0.4-0.2-0.8-0.1c-0.3,0.1-0.3,0.2-0.7,0.2c-0.6,0-0.8-0.1-1.1-0.2c-0.8-0.5-0.8-0.9-0.8-0.9L65.3,5
	l0.6-1.3L65,2.5L63.5,2.7z"/>
<path fill="#CE0538" d="M71.2,9.5l0.1-9L72.4,0l0.2,2.5l-0.3,0.3l0.3,0.4l-0.3,0.4L72.6,4l-0.3,0.4l0.4,0.4l-0.3,0.5l0.4,0.5
	l-0.4,0.5l0.4,0.4l-0.4,0.4l0.4,0.4L72.5,8l0.3,0.5L72.5,9l0.4,0.4l-0.3,0.4l0.3,0.4l-0.2,0.4l0.2,0.2l0.1,0.6l0.8-0.9
	c0,0,0.2-3.3,0.3-4c0.1-0.7,0.2-1.2,0.3-1.6c0.2-0.5,0.1-0.3,0.3-0.7c0.2-0.4,0.5-0.8,0.5-0.8l0.1,1.6c0,0,0.1,1.3,0.1,1.4
	c0,0.1,0,2.2,0,2.2l3.2-3.7l0,0c0,0,0.1,0.4-0.1,1c-0.4,1.7-1.3,2.7-1.5,3c-0.3,0.4-1.4,1.7-1.4,1.7s-0.1,1.6-0.2,2.4
	c-0.1,0.7-0.1,2.3-0.1,2.3l0,0.7h-0.7l0-2.1c0,0,0-0.6,0-0.9c-0.1-0.3-0.1-0.4-0.3-0.6C74.2,12,74.1,12,74.1,12s-0.4,0.2-0.6,0.3
	c-0.2,0.2-0.5,0.4-0.5,0.4s0.1,1.3,0.1,1.6c0,0.3,0.1,1.7,0.1,1.7H70l1.1-1.7L71.2,9.5z"/>
<path fill="#CE0538" d="M63.7,7.7c0,0,1.3-0.4,2.6,0.1c1.3,0.5,4.2,2.6,4.2,2.6v2.9c0,0-4.2-2.6-5.3-3.5C63.8,8.5,63.7,7.7,63.7,7.7
	"/>
<path fill="#CE0538" d="M1.5,1.5h3.6V5h0c0.3-0.8,1.4-1.2,2.2-1.2c1.5,0,2.5,1,2.5,3.2v9H6.2V7.1c0-0.4-0.1-0.9-0.6-0.9
	c-0.5,0-0.5,0.5-0.5,0.9V16H1.5V1.5z"/>
<path fill="#CE0538" d="M10.8,7.8c0-3.1,2.3-3.9,4.3-3.9c1.7,0,4,1,4,3.9v2.5h-4.7v3.1c0,0.5,0.1,0.8,0.5,0.8c0.5,0,0.6-0.4,0.6-0.8
	v-2.1h3.5v1.2c0,3.1-2.1,3.9-4,3.9c-2,0-4.3-0.9-4.3-3.9V7.8z M14.4,8.3h1.2V6.8C15.6,6.4,15.5,6,15,6c-0.4,0-0.5,0.3-0.5,0.8V8.3z"
	/>
<path fill="#CE0538" d="M19.5,4.1h0.8V2.3H24v1.8h1v1.9h-1v7.5c0,0.3,0.1,0.5,0.4,0.5h0.5V16h-2c-2.4,0-2.7-1-2.7-2.8V6.1h-0.8V4.1z
	"/>
<path fill="#CE0538" d="M30.4,4.1H34V5h0c0.2-0.4,0.5-0.7,0.9-0.9c0.4-0.2,0.9-0.3,1.3-0.3c1.1,0,1.8,0.7,2.1,1.4
	c0.6-0.7,1.4-1.4,2.4-1.4c1.5,0,2.5,1,2.5,3.2v9h-3.6V7.1c0-0.4-0.1-0.9-0.6-0.9c-0.5,0-0.5,0.5-0.5,0.9V16h-3.5V7.1
	c0-0.4-0.1-0.9-0.5-0.9c-0.5,0-0.5,0.5-0.5,0.9V16h-3.6V4.1z"/>
<path fill="#CE0538" d="M44.2,7.8c0-3.1,2.3-3.9,4.3-3.9s4.3,0.9,4.3,3.9v4.6c0,3.1-2.3,3.9-4.3,3.9s-4.3-0.9-4.3-3.9V7.8z
	 M47.8,13.1c0,0.4,0.2,0.8,0.6,0.8c0.4,0,0.6-0.4,0.6-0.8V6.8c0-0.4-0.2-0.8-0.6-0.8c-0.4,0-0.6,0.4-0.6,0.8V13.1z"/>
<path fill="#CE0538" d="M53.3,4.1h0.8V2.3h3.7v1.8h1v1.9h-1v7.5c0,0.3,0.1,0.5,0.4,0.5h0.5V16h-2c-2.4,0-2.7-1-2.7-2.8V6.1h-0.8V4.1
	z"/>
</svg>
