<?xml version="1.0" encoding="utf-8"?>
<!-- Generator: Adobe Illustrator 18.1.0, SVG Export Plug-In . SVG Version: 6.00 Build 0)  -->
<!DOCTYPE svg PUBLIC "-//W3C//DTD SVG 1.1//EN" "http://www.w3.org/Graphics/SVG/1.1/DTD/svg11.dtd">
<svg version="1.1" id="Layer_1" xmlns="http://www.w3.org/2000/svg" xmlns:xlink="http://www.w3.org/1999/xlink" x="0px" y="0px"
	 viewBox="0 0 57.2 69" enable-background="new 0 0 57.2 69" xml:space="preserve">
<g>
	<path fill="#CE0538" d="M4.6,8.4c0,0,1.4-5.1,5.9-4.9c0,0,2.3-0.2,4.3,1.9c2,2.1,2.1,4.3,2.2,4.5c0.1,0.2,9.5,8.6,9.5,8.6v9.7
		l-8.3-7.2c0,0-1-0.9-2.2-1.4c-1-0.4-1.4-0.5-2.4-0.2c-1,0.4-1,0.5-2.2,0.6c-1.7,0.1-2.6-0.2-3.5-0.7c-2.4-1.4-2.5-2.8-2.5-2.8
		l4.8-1.1l1.8-4.1L9.2,7.8L4.6,8.4z"/>
	<path fill="#CE0538" d="M28.7,29.6l0.4-28.1L32.5,0l0.6,7.9l-0.8,0.9l0.9,1.2l-1.1,1.2l1,1.4l-0.9,1.3l1.1,1.4l-1.1,1.4l1.2,1.5
		l-1.1,1.4l1.3,1.3l-1.1,1.4l1.2,1.4l-1,1.4l1,1.6l-0.9,1.5l1.1,1.2L33,30.7l1,1.2l-0.7,1.2l0.7,0.7l0.2,1.9l2.5-2.9
		c0,0,0.7-10.4,0.9-12.3c0.2-2.3,0.6-3.8,1.1-5.2c0.6-1.7,0.4-1,1-2.3c0.5-1.1,1.7-2.6,1.7-2.6l0.4,4.9c0,0,0.2,4,0.2,4.4
		c0,0.3,0,6.9,0,6.9l10.1-11.5l0.1,0.1c0,0,0.2,1.2-0.3,3.3c-1.3,5.5-3.9,8.3-4.8,9.5c-0.9,1.2-4.3,5.4-4.3,5.4s-0.4,5.1-0.6,7.4
		C42,43.1,42,47.9,42,47.9l0.1,2.1h-2.3l0-6.6c0,0,0.1-1.9-0.1-2.8c-0.2-0.9-0.3-1.2-0.9-2c-0.7-1-1-1.2-1-1.2s-1.2,0.5-1.9,1
		c-0.8,0.5-1.6,1.2-1.6,1.2s0.3,4.2,0.4,4.9c0,0.8,0.3,5.4,0.3,5.4H25l3.4-5.3L28.7,29.6z"/>
	<path fill="#CE0538" d="M5.3,23.9c0,0,4.1-1.1,8.1,0.4c4.1,1.6,13.1,8.1,13.1,8.1v9c0,0-13.2-8.1-16.6-11
		C5.5,26.7,5.3,23.9,5.3,23.9"/>
	<path fill="#CE0538" d="M0,54.2h3.6v3.5h0c0.3-0.8,1.4-1.2,2.2-1.2c1.5,0,2.5,1,2.5,3.2v9H4.7v-8.9c0-0.4-0.1-0.9-0.6-0.9
		c-0.5,0-0.5,0.5-0.5,0.9v8.9H0V54.2z"/>
	<path fill="#CE0538" d="M9.3,60.4c0-3.1,2.3-3.9,4.3-3.9c1.7,0,4,1,4,3.9v2.5h-4.7V66c0,0.5,0.1,0.8,0.5,0.8c0.5,0,0.6-0.4,0.6-0.8
		v-2.1h3.5V65c0,3.1-2.1,3.9-4,3.9c-2,0-4.3-0.9-4.3-3.9V60.4z M12.9,60.9h1.2v-1.5c0-0.4-0.1-0.8-0.6-0.8c-0.4,0-0.5,0.3-0.5,0.8
		V60.9z"/>
	<path fill="#CE0538" d="M18,56.8h0.8v-1.8h3.7v1.8h1v1.9h-1v7.5c0,0.3,0.1,0.5,0.4,0.5h0.5v1.9h-2c-2.4,0-2.7-1-2.7-2.8v-7.1H18
		V56.8z"/>
	<path fill="#CE0538" d="M28.9,56.8h3.6v0.9h0c0.2-0.4,0.5-0.7,0.9-0.9c0.4-0.2,0.9-0.3,1.3-0.3c1.1,0,1.8,0.8,2.1,1.4
		c0.6-0.7,1.4-1.4,2.4-1.4c1.5,0,2.5,1,2.5,3.2v9h-3.6v-8.9c0-0.4-0.1-0.9-0.6-0.9c-0.5,0-0.5,0.5-0.5,0.9v8.9h-3.5v-8.9
		c0-0.4-0.1-0.9-0.5-0.9c-0.5,0-0.5,0.5-0.5,0.9v8.9h-3.6V56.8z"/>
	<path fill="#CE0538" d="M42.7,60.4c0-3.1,2.3-3.9,4.3-3.9s4.3,0.9,4.3,3.9V65c0,3.1-2.3,3.9-4.3,3.9s-4.3-0.9-4.3-3.9V60.4z
		 M46.3,65.7c0,0.4,0.2,0.8,0.6,0.8c0.4,0,0.6-0.4,0.6-0.8v-6.3c0-0.4-0.2-0.8-0.6-0.8c-0.4,0-0.6,0.4-0.6,0.8V65.7z"/>
	<path fill="#CE0538" d="M51.8,56.8h0.8v-1.8h3.7v1.8h1v1.9h-1v7.5c0,0.3,0.1,0.5,0.4,0.5h0.5v1.9h-2c-2.4,0-2.7-1-2.7-2.8v-7.1
		h-0.8V56.8z"/>
</g>
</svg>
