<?xml version="1.0" encoding="utf-8"?>
<!-- Generator: Adobe Illustrator 18.1.0, SVG Export Plug-In . SVG Version: 6.00 Build 0)  -->
<!DOCTYPE svg PUBLIC "-//W3C//DTD SVG 1.1//EN" "http://www.w3.org/Graphics/SVG/1.1/DTD/svg11.dtd">
<svg version="1.1" id="Layer_1" xmlns="http://www.w3.org/2000/svg" xmlns:xlink="http://www.w3.org/1999/xlink" x="0px" y="0px"
	 viewBox="3.4 271.6 176.4 37.5" enable-background="new 3.4 271.6 176.4 37.5" xml:space="preserve">
<g>
	<path fill="#FFFFFF" d="M145.2,277.8c0,0,1.1-3.7,4.3-3.7c0,0,1.6-0.2,3.2,1.4c1.6,1.6,1.6,3.2,1.6,3.2c0,0.2,6.9,6.4,6.9,6.4v7.1
		l-6.2-5.3c0,0-0.7-0.7-1.6-1.1c-0.7-0.2-0.9-0.5-1.8-0.2c-0.7,0.2-0.7,0.5-1.6,0.5c-1.4,0-1.8-0.2-2.5-0.5
		c-1.8-1.1-1.8-2.1-1.8-2.1l3.7-0.5l1.4-3l-2.1-2.7L145.2,277.8z"/>
	<path fill="#FFFFFF" d="M162.8,293.4l0.2-20.6l2.5-1.1l0.5,5.7l-0.7,0.7l0.7,0.9l-0.7,0.9l0.7,0.9l-0.7,0.9l0.9,0.9l-0.7,1.1
		l0.9,1.1l-0.9,1.1l0.9,0.9l-0.9,0.9l0.9,0.9l-0.7,1.1l0.7,1.1l-0.7,1.1l0.9,0.9L166,294l0.7,0.9l-0.5,0.9l0.5,0.5l0.2,1.4l1.8-2.1
		c0,0,0.5-7.5,0.7-9.1c0.2-1.6,0.5-2.7,0.7-3.7c0.5-1.1,0.2-0.7,0.7-1.6c0.5-0.9,1.1-1.8,1.1-1.8l0.2,3.7c0,0,0.2,3,0.2,3.2
		c0,0.2,0,5,0,5l7.3-8.5l0,0c0,0,0.2,0.9-0.2,2.3c-0.9,3.9-3,6.2-3.4,6.9c-0.7,0.9-3.2,3.9-3.2,3.9s-0.2,3.7-0.5,5.5
		c-0.2,1.6-0.2,5.3-0.2,5.3v1.6h-1.6v-4.8c0,0,0-1.4,0-2.1c-0.2-0.7-0.2-0.9-0.7-1.4c-0.2-0.9-0.5-0.9-0.5-0.9s-0.9,0.5-1.4,0.7
		c-0.5,0.5-1.1,0.9-1.1,0.9s0.2,3,0.2,3.7s0.2,3.9,0.2,3.9h-7.3l2.5-3.9L162.8,293.4z"/>
	<path fill="#FFFFFF" d="M145.7,289.2c0,0,3-0.9,5.9,0.2c3,1.1,9.6,5.9,9.6,5.9v6.6c0,0-9.6-5.9-12.1-8
		C145.9,291.1,145.7,289.2,145.7,289.2"/>
	<path fill="#FFFFFF" d="M3.4,275.1h8.2v8l0,0c0.7-1.8,3.2-2.7,5-2.7c3.4,0,5.7,2.3,5.7,7.3v20.6h-8.2v-20.4c0-0.9-0.2-2.1-1.4-2.1
		s-1.1,1.1-1.1,2.1v20.4H3.4V275.1z"/>
	<path fill="#FFFFFF" d="M24.7,289.5c0-7.1,5.3-8.9,9.8-8.9c3.9,0,9.1,2.3,9.1,8.9v5.7H32.9v7.1c0,1.1,0.2,1.8,1.1,1.8
		c1.1,0,1.4-0.9,1.4-1.8v-4.8h8v2.7c0,7.1-4.8,8.9-9.1,8.9c-4.6,0-9.8-2.1-9.8-8.9v-10.7H24.7z M32.9,290.6h2.7v-3.4
		c0-0.9-0.2-1.8-1.4-1.8c-0.9,0-1.1,0.7-1.1,1.8v3.4H32.9z"/>
	<path fill="#FFFFFF" d="M44.6,281h1.8v-4.1h8.5v4.1h2.3v4.3h-2.3v17.2c0,0.7,0.2,1.1,0.9,1.1H57v4.6h-4.6c-5.5,0-6.2-2.3-6.2-6.4
		v-16.2h-1.8V281H44.6z"/>
	<path fill="#FFFFFF" d="M69.5,281h8.2v2.1l0,0c0.5-0.9,1.1-1.6,2.1-2.1c0.9-0.5,2.1-0.7,3-0.7c2.5,0,4.1,1.6,4.8,3.2
		c1.4-1.6,3.2-3.2,5.5-3.2c3.4,0,5.7,2.3,5.7,7.3v20.6h-8.2v-20.4c0-0.9-0.2-2.1-1.4-2.1c-1.1,0-1.1,1.1-1.1,2.1v20.4h-8v-20.4
		c0-0.9-0.2-2.1-1.1-2.1c-1.1,0-1.1,1.1-1.1,2.1v20.4h-8.2C69.5,308.2,69.5,281,69.5,281z"/>
	<path fill="#FFFFFF" d="M101.1,289.5c0-7.1,5.3-8.9,9.8-8.9s9.8,2.1,9.8,8.9V300c0,7.1-5.3,8.9-9.8,8.9s-9.8-2.1-9.8-8.9V289.5z
		 M109.3,301.6c0,0.9,0.5,1.8,1.4,1.8c0.9,0,1.4-0.9,1.4-1.8v-14.4c0-0.9-0.5-1.8-1.4-1.8c-0.9,0-1.4,0.9-1.4,1.8V301.6z"/>
	<path fill="#FFFFFF" d="M121.9,281h1.8v-4.1h8.5v4.1h2.3v4.3h-2.3v17.2c0,0.7,0.2,1.1,0.9,1.1h1.1v4.6h-4.6c-5.5,0-6.2-2.3-6.2-6.4
		v-16.2h-1.8V281H121.9z"/>
</g>
</svg>
