<?xml version="1.0" encoding="utf-8"?>
<!-- Generator: Adobe Illustrator 16.0.0, SVG Export Plug-In . SVG Version: 6.00 Build 0)  -->
<!DOCTYPE svg PUBLIC "-//W3C//DTD SVG 1.1//EN" "http://www.w3.org/Graphics/SVG/1.1/DTD/svg11.dtd">
<svg version="1.1" id="Layer_1" xmlns="http://www.w3.org/2000/svg" xmlns:xlink="http://www.w3.org/1999/xlink" x="0px" y="0px"
	 width="374.012px" height="170px" viewBox="0 0 374.012 170" enable-background="new 0 0 374.012 170" xml:space="preserve">
<g id="yVxpTk_2_">
	<g>
		<path fill-rule="evenodd" clip-rule="evenodd" d="M79.057,61.222c0.774-1.284,1.904-1.886,3.407-1.87
			c1.761,0.02,2.674-0.688,3.476-2.499c1.085-2.448,1.022-4.161-0.884-6.033c-1.202-1.181-0.94-2.62,0.231-3.82
			c1.217-1.246,2.441-2.488,3.696-3.696c1.585-1.527,2.774-1.712,4.4-0.176c1.598,1.511,3.036,1.905,4.813,0.519
			c0.048-0.037,0.11-0.068,0.169-0.076c2.575-0.36,3.52-1.901,3.535-4.418c0.01-1.703,1.279-2.474,2.907-2.524
			c1.555-0.049,3.111-0.022,4.667-0.013c2.688,0.016,3.759,0.807,3.819,3.445c0.043,1.896,0.717,2.885,2.519,3.193
			c0.061,0.01,0.131,0.016,0.179,0.05c2.149,1.514,4.035,1.457,5.959-0.567c1.01-1.062,2.444-0.782,3.528,0.248
			c1.397,1.329,2.774,2.684,4.094,4.09c1.299,1.386,1.123,2.886-0.125,4.154c-1.439,1.463-1.563,2.736-0.704,4.724
			c0.893,2.061,1.704,3.224,4.148,3.23c2.097,0.004,2.864,1.177,2.9,3.342c0.027,1.618,0.037,3.237-0.003,4.854
			c-0.051,2.052-0.842,2.883-2.871,3.197c-1.028,0.159-2.532,0.039-2.972,0.653c-1.023,1.427-1.629,3.192-2.177,4.893
			c-0.134,0.419,0.54,1.165,0.944,1.68c2.416,3.075,2.395,3.638-0.357,6.391c-0.88,0.881-1.736,1.786-2.643,2.638
			c-1.385,1.301-2.608,1.356-4.165,0.224c-0.553-0.402-1.141-0.781-1.607-1.271c-0.739-0.776-1.478-0.774-2.319-0.24
			c-0.208,0.132-0.435,0.271-0.671,0.318c-2.778,0.557-4.183,2.035-4.053,5.072c0.062,1.469-1.113,2.426-2.771,2.41
			c-1.868-0.018-3.735-0.023-5.602,0.003c-1.843,0.026-2.703-1.011-2.988-2.684c-0.083-0.488-0.103-0.991-0.109-1.488
			c-0.019-1.525-0.576-2.614-2.233-2.851c-0.122-0.018-0.262-0.038-0.354-0.108c-2.056-1.562-3.714-0.961-5.468,0.691
			c-1.547,1.458-2.871,1.26-4.404-0.223c-1.163-1.125-2.311-2.267-3.433-3.433c-1.561-1.623-1.75-2.755-0.227-4.381
			c1.627-1.737,1.936-3.204,0.913-5.512c-0.82-1.849-1.867-2.403-3.562-2.414c-1.548-0.01-2.779-0.527-3.604-1.877
			C79.057,66.452,79.057,63.837,79.057,61.222z M107.547,74.824c5.598-0.01,10.046-4.492,10.025-10.102
			c-0.021-5.504-4.449-9.924-9.974-9.957c-5.566-0.034-10.157,4.472-10.188,9.999C97.378,70.26,101.987,74.833,107.547,74.824z"/>
		<path fill-rule="evenodd" clip-rule="evenodd" d="M178.691,92.361c-1.044,0.589-2.029,1.388-3.15,1.706
			c-1.026,0.292-1.693,0.561-1.796,1.719c-0.048,0.542-0.253,1.107-0.524,1.583c-0.62,1.086-0.409,1.855,0.479,2.756
			c1.994,2.021,1.958,2.955,0.148,5.097c-0.04,0.048-0.081,0.095-0.121,0.143c-2.605,3.071-2.738,4.525-7.577,1.272
			c-1.165,0.582-2.403,1.059-3.462,1.792c-0.475,0.329-0.794,1.158-0.84,1.783c-0.215,2.962-0.707,3.549-3.605,3.896
			c-0.742,0.089-1.482,0.202-2.226,0.241c-2.547,0.136-3.271-0.507-3.875-2.974c-0.193-0.788-0.739-1.955-1.323-2.091
			c-1.53-0.355-3.056-2.006-4.805,0.053c-1.672,1.966-2.807,1.817-4.806,0.169c-4.023-3.318-4.023-3.318-1.476-8.026
			c-0.207-0.371-0.48-0.729-0.62-1.133c-0.701-2.021-1.856-3.097-4.236-2.899c-0.738,0.061-2.004-1.102-2.294-1.954
			c-0.486-1.431-0.491-3.062-0.501-4.609c-0.013-1.969,1.461-2.54,3.078-2.896c2.289-0.505,3.444-4.312,1.849-6.056
			c-1.801-1.968-1.827-2.941-0.125-5.001c0.396-0.48,0.809-0.946,1.208-1.424c1.901-2.28,2.753-2.474,5.189-0.846
			c0.947,0.632,1.644,0.604,2.497-0.04c0.49-0.369,1.054-0.702,1.637-0.873c1.196-0.351,1.616-1.057,1.67-2.304
			c0.116-2.678,0.621-3.114,3.352-3.45c0.679-0.084,1.358-0.188,2.04-0.231c2.872-0.177,3.479,0.238,4.115,3.061
			c0.234,1.041,0.677,1.646,1.776,1.767c0.546,0.06,1.138,0.195,1.594,0.481c1.232,0.772,2.08,0.402,3.056-0.553
			c1.587-1.554,2.652-1.493,4.4-0.062c0.434,0.355,0.855,0.724,1.285,1.083c2.826,2.358,2.859,2.679,1.049,5.887
			c-0.241,0.429-0.233,1.141-0.065,1.627c0.301,0.871,0.753,1.707,1.257,2.482c0.263,0.405,0.811,0.961,1.163,0.917
			c2.936-0.371,4.194,1.161,4.583,3.798C178.691,89.621,178.691,90.991,178.691,92.361z M147.285,90.82
			c-0.004,4.618,3.681,8.31,8.26,8.273c4.463-0.035,8.19-3.762,8.202-8.2c0.013-4.541-3.765-8.294-8.316-8.261
			C150.9,82.667,147.29,86.295,147.285,90.82z"/>
		<path fill-rule="evenodd" clip-rule="evenodd" d="M117.359,133.399c-2.792-0.02-3.525-0.631-3.988-3.324
			c-0.24-1.397-2.976-2.636-4.191-1.897c-2.625,1.595-5.951,0.333-6.571-2.655c-0.171-0.826,0.296-1.928,0.777-2.716
			c1.024-1.679,0.127-4.125-1.816-4.561c-2.52-0.562-2.885-1.149-2.815-4.52c0.048-2.275,0.687-2.981,3.078-3.394
			c1.351-0.233,2.657-3.187,1.926-4.354c-1.467-2.338-1.407-3.014,0.437-4.848c2.201-2.188,2.856-2.297,5.11-0.853
			c1.199,0.768,4.449-0.604,4.742-2.003c0.485-2.32,1.27-2.876,3.988-2.826c2.705,0.05,3.423,0.609,3.853,3.005
			c0.234,1.309,3.421,2.703,4.573,2.002c2.253-1.371,2.83-1.265,4.938,0.91c1.838,1.896,1.933,2.639,0.606,4.699
			c-0.888,1.378,0.278,4.225,1.874,4.576c2.341,0.517,2.785,1.177,2.711,4.04c-0.071,2.779-0.546,3.382-3.011,3.812
			c-1.314,0.23-2.662,3.253-1.961,4.399c1.568,2.562,0.16,5.949-2.852,6.478c-0.828,0.146-1.882-0.374-2.683-0.844
			c-1.388-0.813-4.314,0.259-4.677,1.842C120.817,132.934,120.171,133.417,117.359,133.399z M117.724,107.623
			c-3.677,0.021-6.654,2.963-6.675,6.598c-0.021,3.705,3.074,6.805,6.746,6.754c3.646-0.051,6.676-3.055,6.702-6.642
			C124.522,110.632,121.465,107.603,117.724,107.623z"/>
	</g>
</g>
</svg>
