<?xml version="1.0" encoding="utf-8"?>
<!-- Generator: Adobe Illustrator 16.0.0, SVG Export Plug-In . SVG Version: 6.00 Build 0)  -->
<!DOCTYPE svg PUBLIC "-//W3C//DTD SVG 1.1//EN" "http://www.w3.org/Graphics/SVG/1.1/DTD/svg11.dtd">
<svg version="1.1" id="Layer_1" xmlns="http://www.w3.org/2000/svg" xmlns:xlink="http://www.w3.org/1999/xlink" x="0px" y="0px"
	 width="271px" height="50.667px" viewBox="0 0 271 50.667" enable-background="new 0 0 271 50.667" xml:space="preserve">
<g>
	<path d="M33.687,16.39h-4.032c-0.922-4.781-4.378-7.892-10.944-7.892c-5.933,0-9.85,2.88-9.85,7.431
		c0,3.571,2.822,5.76,8.007,6.682l5.933,1.152c6.97,1.324,10.887,4.607,10.887,10.195c0,7.143-5.817,11.866-14.573,11.866
		c-9.389,0-15.379-4.896-16.301-13.364h4.032c0.979,6.106,5.242,9.678,12.442,9.678c6.279,0,10.253-3.053,10.253-7.719
		c0-3.283-2.304-5.761-7.373-6.682l-6.797-1.325c-7.2-1.325-10.829-4.954-10.829-10.253c0-6.739,5.587-11.232,13.882-11.232
		C26.372,4.927,32.708,8.671,33.687,16.39z"/>
	<path d="M63.753,9.535V44.96h-4.09V9.535H45.09V5.791h33.236v3.744H63.753z"/>
	<path d="M96.988,30.732V44.96h-4.09V5.791h14.573c8.813,0,14.919,4.78,14.919,12.499c0,6.395-4.263,10.829-10.829,12.097
		l12.558,14.573h-5.127l-12.27-14.228H96.988z M107.356,26.988c6.394,0,10.944-3.283,10.944-8.698c0-5.472-4.55-8.755-10.944-8.755
		H96.988v17.453H107.356z"/>
	<path d="M145.429,33.555l-5.068,11.405h-4.379l17.8-39.457h3.859L175.44,44.96h-4.378l-5.069-11.405H145.429z M155.682,10.398
		l-8.583,19.412h17.224L155.682,10.398z"/>
	<path d="M216.623,44.96h-25.92V5.791h4.089v35.482h21.831V44.96z"/>
	<path d="M268.347,25.375c0,11.29-9.102,20.392-20.392,20.392s-20.391-9.102-20.391-20.392s9.101-20.391,20.391-20.391
		S268.347,14.085,268.347,25.375z M264.2,25.375c0-9.101-7.143-16.589-16.302-16.589c-9.101,0-16.243,7.488-16.243,16.589
		c0,9.102,7.143,16.59,16.243,16.59C257.057,41.965,264.2,34.477,264.2,25.375z"/>
</g>
</svg>
